#!OML:ASF F:\twosubjects\two\Thursday\Session 1\justin.ASF
:FULLY-SPECIFIED
:DEGREES
442
root 13.2757 12.7005 -16.4144 7.8223 -73.5912 -0.422248
lowerback 21.0635 1.82496 -0.173801
upperback 5.02999 2.34521 3.9166
thorax -6.46364 1.02857 3.73701
lowerneck -21.0781 8.57852 -1.86658
upperneck 14.2548 13.029 -4.31005
head 8.02768 5.61537 0.535316
rclavicle -1.66979e-014 -5.56597e-014
rhumerus -26.91 -26.9441 -60.9841
rradius 38.081
rwrist -6.88946
rhand -14.7279 14.2187
rfingers 7.12502
rthumb 11.4272 -15.4499
lclavicle -1.66979e-014 -5.56597e-014
lhumerus -28.6566 11.3534 78.8668
lradius 38.4338
lwrist -12.2326
lhand 0.498456 37.7388
lfingers 7.12502
lthumb 26.0677 65.9701
rfemur -64.3947 -35.5407 21.7247
rtibia 112.364
rfoot -32.9037 17.2607
rtoes -20.6279
lfemur -66.0091 29.4591 -18.585
ltibia 108.135
lfoot -28.699 -24.3609
ltoes -8.91984
443
root 13.2695 12.5653 -16.3812 7.54029 -74.45 -0.684499
lowerback 21.5831 2.08273 -0.1055
upperback 5.30137 2.66384 3.83068
thorax -6.45427 1.16787 3.51417
lowerneck -20.7062 8.64299 -1.73282
upperneck 13.8258 13.0558 -4.43349
head 7.83958 5.65166 0.451571
rclavicle 2.14687e-014 7.95139e-015
rhumerus -26.9764 -27.2933 -60.8789
rradius 38.3526
rwrist -6.40934
rhand -14.4058 14.1176
rfingers 7.12502
rthumb 11.7378 -15.5335
lclavicle 2.14687e-014 7.95139e-015
lhumerus -28.6694 11.3277 78.7732
lradius 38.3783
lwrist -12.3681
lhand 0.202865 37.6835
lfingers 7.12502
lthumb 25.7847 65.9562
rfemur -64.66 -35.416 21.0176
rtibia 113.629
rfoot -32.3889 18.5389
rtoes -19.1669
lfemur -65.8468 31.0594 -18.3377
ltibia 109.369
lfoot -28.9597 -25.6212
ltoes -5.69376
444
root 13.2747 12.4308 -16.3782 8.94046 -74.7608 -2.41288
lowerback 22.0506 2.1682 0.229328
upperback 5.44729 2.83745 3.90604
thorax -6.53708 1.2376 3.35157
lowerneck -20.72 8.67345 -1.67008
upperneck 13.7393 13.0538 -4.33192
head 7.80844 5.6693 0.472459
rclavicle 6.67916e-014 -1.19271e-014
rhumerus -26.9914 -27.3306 -60.9587
rradius 38.5743
rwrist -6.65131
rhand -14.2928 14.4928
rfingers 7.12502
rthumb 11.8467 -15.1521
lclavicle 6.67916e-014 -1.19271e-014
lhumerus -28.6331 11.4803 78.6221
lradius 38.3395
lwrist -12.4541
lhand -0.387489 38.0689
lfingers 7.12502
lthumb 25.2192 66.4225
rfemur -65.1791 -35.4133 21.3015
rtibia 114.846
rfoot -31.9996 19.1248
rtoes -17.6069
lfemur -66.4269 32.252 -17.6945
ltibia 110.729
lfoot -29.3352 -26.5771
ltoes -4.47042
445
root 13.2955 12.2749 -16.3854 9.95366 -74.5405 -3.38047
lowerback 22.2864 2.01637 0.383244
upperback 5.45389 2.68265 4.03974
thorax -6.64215 1.15823 3.44952
lowerneck -20.6889 8.82418 -1.50694
upperneck 13.5552 13.2335 -4.52307
head 7.7692 5.75222 0.404537
rclavicle -2.14687e-014 -1.51076e-014
rhumerus -26.7675 -26.7077 -61.2361
rradius 38.5953
rwrist -7.55729
rhand -14.6199 14.9591
rfingers 7.12502
rthumb 11.5314 -14.7036
lclavicle -2.14687e-014 -1.51076e-014
lhumerus -28.6751 11.8416 78.5065
lradius 38.4376
lwrist -12.294
lhand -0.758399 38.6605
lfingers 7.12502
lthumb 24.8638 67.0636
rfemur -66.2875 -36.0315 21.8088
rtibia 116.262
rfoot -32.0861 19.2268
rtoes -17.8503
lfemur -67.7713 32.6748 -17.4569
ltibia 112.279
lfoot -29.7962 -27.1981
ltoes -4.23785
446
root 13.3058 12.1254 -16.3525 8.40019 -74.572 -2.04146
lowerback 22.6261 1.97102 0.351053
upperback 5.59539 2.59634 3.89677
thorax -6.65223 1.11046 3.33231
lowerneck -20.4845 8.91587 -1.27396
upperneck 13.3108 13.312 -4.75906
head 7.68852 5.79311 0.290345
rclavicle 1.74931e-014 2.06736e-014
rhumerus -26.7324 -26.3313 -61.3226
rradius 38.7963
rwrist -7.67979
rhand -14.9851 14.6089
rfingers 7.12502
rthumb 11.1791 -15.0733
lclavicle 1.74931e-014 2.06736e-014
lhumerus -28.6167 12.0841 78.4199
lradius 38.4166
lwrist -12.3895
lhand -0.285786 37.9376
lfingers 7.12502
lthumb 25.3166 66.2774
rfemur -66.8628 -37.1637 21.0038
rtibia 117.643
rfoot -32.4701 19.6608
rtoes -19.7547
lfemur -68.2457 32.9311 -17.8869
ltibia 113.692
lfoot -30.3073 -27.2527
ltoes -3.9049
